<svg xmlns="http://www.w3.org/2000/svg" width="880" height="308" viewBox="0 0 880 308" role="img" aria-label="bb Monokai palette swatches">
  <style>
    .l { font: 500 11px ui-monospace, "SF Mono", Menlo, monospace; fill: #e3e3ddbd; }
    .h { font: 600 12px ui-sans-serif, system-ui, sans-serif; fill: #e3e3dd; }
    .v { font: 400 10px ui-monospace, "SF Mono", Menlo, monospace; fill: #e3e3dd8c; }
  </style>

  <rect width="880" height="308" rx="10" fill="#181818"/>
  <rect x="0.5" y="0.5" width="879" height="307" rx="9.5" fill="none" stroke="#e3e3dd1e"/>

  <text class="h" x="28" y="38">Grounds</text>
  <g>
    <rect x="28"  y="52" width="126" height="52" rx="6" fill="#141414" stroke="#e3e3dd1e"/>
    <rect x="164" y="52" width="126" height="52" rx="6" fill="#181818" stroke="#e3e3dd1e"/>
    <rect x="300" y="52" width="126" height="52" rx="6" fill="#1e1e1e" stroke="#e3e3dd1e"/>
    <rect x="436" y="52" width="126" height="52" rx="6" fill="#262626" stroke="#e3e3dd1e"/>
    <rect x="572" y="52" width="126" height="52" rx="6" fill="#404040" stroke="#e3e3dd1e"/>
    <text class="l" x="28"  y="120">chrome</text>   <text class="v" x="28"  y="134">#141414</text>
    <text class="l" x="164" y="120">editor</text>   <text class="v" x="164" y="134">#181818</text>
    <text class="l" x="300" y="120">well</text>     <text class="v" x="300" y="134">#1E1E1E</text>
    <text class="l" x="436" y="120">raised</text>   <text class="v" x="436" y="134">#262626</text>
    <text class="l" x="572" y="120">selection</text><text class="v" x="572" y="134">#404040</text>
  </g>

  <text class="h" x="28" y="176">Accent and feedback</text>
  <g>
    <rect x="28"  y="190" width="126" height="52" rx="6" fill="#88c0d0"/>
    <rect x="164" y="190" width="126" height="52" rx="6" fill="#3fa266"/>
    <rect x="300" y="190" width="126" height="52" rx="6" fill="#f1b467"/>
    <rect x="436" y="190" width="126" height="52" rx="6" fill="#e34671"/>
    <rect x="572" y="190" width="126" height="52" rx="6" fill="#e3e3dd"/>
    <text class="l" x="28"  y="258">accent</text>  <text class="v" x="28"  y="272">#88C0D0</text>
    <text class="l" x="164" y="258">success</text> <text class="v" x="164" y="272">#3FA266</text>
    <text class="l" x="300" y="258">warning</text> <text class="v" x="300" y="272">#F1B467</text>
    <text class="l" x="436" y="258">danger</text>  <text class="v" x="436" y="272">#E34671</text>
    <text class="l" x="572" y="258">ink</text>     <text class="v" x="572" y="272">#E3E3DD</text>
  </g>

  <g>
    <text class="h" x="726" y="38">Text ladder</text>
    <rect x="726" y="52" width="126" height="16" rx="3" fill="#e3e3dd"/>
    <rect x="726" y="74" width="126" height="16" rx="3" fill="#e3e3ddbd"/>
    <rect x="726" y="96" width="126" height="16" rx="3" fill="#e3e3dd8c"/>
    <rect x="726" y="118" width="126" height="16" rx="3" fill="#e3e3dd40"/>
    <text class="v" x="726" y="148">100 / 74 / 55 / 25 %</text>
  </g>
</svg>
